<svg xmlns="http://www.w3.org/2000/svg" width="320" height="200" viewBox="0 0 320 200">
  <rect width="320" height="200" rx="24" fill="#f4d58d"/>
  <g stroke="#6b3a1f" stroke-width="1">
    <line x1="40"  y1="30"  x2="280" y2="30"/>
    <line x1="40"  y1="58"  x2="280" y2="58"/>
    <line x1="40"  y1="86"  x2="280" y2="86"/>
    <line x1="40"  y1="114" x2="280" y2="114"/>
    <line x1="40"  y1="142" x2="280" y2="142"/>
    <line x1="40"  y1="170" x2="280" y2="170"/>
    <line x1="40"  y1="30"  x2="40"  y2="170"/>
    <line x1="80"  y1="30"  x2="80"  y2="170"/>
    <line x1="120" y1="30"  x2="120" y2="170"/>
    <line x1="160" y1="30"  x2="160" y2="170"/>
    <line x1="200" y1="30"  x2="200" y2="170"/>
    <line x1="240" y1="30"  x2="240" y2="170"/>
    <line x1="280" y1="30"  x2="280" y2="170"/>
  </g>
  <circle cx="160" cy="100" r="4" fill="#6b3a1f"/>
  <circle cx="120" cy="86"  r="11" fill="#111" stroke="#333"/>
  <circle cx="160" cy="86"  r="11" fill="#111" stroke="#333"/>
  <circle cx="200" cy="86"  r="11" fill="#111" stroke="#333"/>
  <circle cx="120" cy="114" r="11" fill="#fff" stroke="#999"/>
  <circle cx="160" cy="114" r="11" fill="#fff" stroke="#999"/>
  <circle cx="240" cy="114" r="11" fill="#fff" stroke="#999"/>
  <circle cx="80"  cy="114" r="11" fill="#fff" stroke="#999"/>
</svg>
