<svg xmlns="http://www.w3.org/2000/svg" width="320" height="200" viewBox="0 0 320 200">
  <rect width="320" height="200" rx="24" fill="#fff8f3"/>
  <g transform="translate(70,30)">
    <rect x="0"   y="0"  width="32" height="32" rx="6" fill="#34d399"/>
    <rect x="36"  y="0"  width="32" height="32" rx="6" fill="#fde8d8"/>
    <rect x="72"  y="0"  width="32" height="32" rx="6" fill="#fbbf24"/>
    <rect x="108" y="0"  width="32" height="32" rx="6" fill="#a094b8"/>
    <rect x="144" y="0"  width="32" height="32" rx="6" fill="#34d399"/>
    <text x="16"  y="22" text-anchor="middle" font-family="system-ui,sans-serif" font-size="18" font-weight="900" fill="#fff">P</text>
    <text x="52"  y="22" text-anchor="middle" font-family="system-ui,sans-serif" font-size="18" font-weight="900" fill="#2d1b69">L</text>
    <text x="88"  y="22" text-anchor="middle" font-family="system-ui,sans-serif" font-size="18" font-weight="900" fill="#fff">A</text>
    <text x="124" y="22" text-anchor="middle" font-family="system-ui,sans-serif" font-size="18" font-weight="900" fill="#fff">C</text>
    <text x="160" y="22" text-anchor="middle" font-family="system-ui,sans-serif" font-size="18" font-weight="900" fill="#fff">E</text>

    <rect x="0"   y="40" width="32" height="32" rx="6" fill="#a094b8"/>
    <rect x="36"  y="40" width="32" height="32" rx="6" fill="#34d399"/>
    <rect x="72"  y="40" width="32" height="32" rx="6" fill="#fbbf24"/>
    <rect x="108" y="40" width="32" height="32" rx="6" fill="#34d399"/>
    <rect x="144" y="40" width="32" height="32" rx="6" fill="#a094b8"/>
    <text x="16"  y="62" text-anchor="middle" font-family="system-ui,sans-serif" font-size="18" font-weight="900" fill="#fff">S</text>
    <text x="52"  y="62" text-anchor="middle" font-family="system-ui,sans-serif" font-size="18" font-weight="900" fill="#fff">H</text>
    <text x="88"  y="62" text-anchor="middle" font-family="system-ui,sans-serif" font-size="18" font-weight="900" fill="#fff">A</text>
    <text x="124" y="62" text-anchor="middle" font-family="system-ui,sans-serif" font-size="18" font-weight="900" fill="#fff">R</text>
    <text x="160" y="62" text-anchor="middle" font-family="system-ui,sans-serif" font-size="18" font-weight="900" fill="#fff">P</text>

    <rect x="0"   y="80" width="32" height="32" rx="6" fill="#34d399"/>
    <rect x="36"  y="80" width="32" height="32" rx="6" fill="#34d399"/>
    <rect x="72"  y="80" width="32" height="32" rx="6" fill="#34d399"/>
    <rect x="108" y="80" width="32" height="32" rx="6" fill="#34d399"/>
    <rect x="144" y="80" width="32" height="32" rx="6" fill="#34d399"/>
    <text x="16"  y="102" text-anchor="middle" font-family="system-ui,sans-serif" font-size="18" font-weight="900" fill="#fff">W</text>
    <text x="52"  y="102" text-anchor="middle" font-family="system-ui,sans-serif" font-size="18" font-weight="900" fill="#fff">O</text>
    <text x="88"  y="102" text-anchor="middle" font-family="system-ui,sans-serif" font-size="18" font-weight="900" fill="#fff">R</text>
    <text x="124" y="102" text-anchor="middle" font-family="system-ui,sans-serif" font-size="18" font-weight="900" fill="#fff">D</text>
    <text x="160" y="102" text-anchor="middle" font-family="system-ui,sans-serif" font-size="18" font-weight="900" fill="#fff">S</text>
  </g>
</svg>
